<svg width="64" height="64" viewBox="0 0 64 64" fill="none" xmlns="http://www.w3.org/2000/svg">
  <rect width="64" height="64" rx="16" fill="#E6F7F2"/>
  <g>
    <path d="M16 40c0-4.418 7.163-8 16-8s16 3.582 16 8v4a4 4 0 0 1-4 4H20a4 4 0 0 1-4-4v-4Z" fill="#3BB273"/>
    <ellipse cx="32" cy="28" rx="6" ry="6.5" fill="#fff" stroke="#3BB273" stroke-width="2"/>
    <ellipse cx="22" cy="32" rx="4" ry="4.5" fill="#fff" stroke="#3BB273" stroke-width="2"/>
    <ellipse cx="42" cy="32" rx="4" ry="4.5" fill="#fff" stroke="#3BB273" stroke-width="2"/>
    <path d="M20 48c4-4 20-4 24 0" stroke="#fff" stroke-width="2" stroke-linecap="round"/>
    <path d="M16 40c0-4.418 7.163-8 16-8s16 3.582 16 8" stroke="#fff" stroke-width="2" stroke-linecap="round"/>
    <path d="M24 36l4 4 4-8 4 8 4-4" stroke="#fff" stroke-width="2" stroke-linecap="round" stroke-linejoin="round"/>
  </g>
  <g>
    <rect x="8" y="8" width="48" height="48" rx="12" stroke="#3BB273" stroke-width="2"/>
  </g>
</svg> 